<svg width="32" height="32" viewBox="0 0 32 32" fill="none" xmlns="http://www.w3.org/2000/svg">
<path d="M6.20417 22.7283L6.89838 22.4444L6.89838 22.4444L6.20417 22.7283ZM5.7415 15.2603L5.01777 15.0635L5.01777 15.0635L5.7415 15.2603ZM26.2586 15.2603L26.9823 15.0635L26.9823 15.0635L26.2586 15.2603ZM25.7959 22.7283L25.1017 22.4444L25.1017 22.4444L25.7959 22.7283ZM18.7153 27.7901L18.6 27.049L18.6 27.049L18.7153 27.7901ZM13.2847 27.7901L13.4001 27.049L13.4001 27.049L13.2847 27.7901ZM10.7766 10.3805L10.6278 9.64539L10.7766 10.3805ZM21.2235 10.3805L21.0747 11.1156L21.2235 10.3805ZM12.2864 27.6347L12.1711 28.3758L12.1711 28.3758L12.2864 27.6347ZM6.32802 23.0312L5.63381 23.315L5.63381 23.315L6.32802 23.0312ZM19.7136 27.6347L19.829 28.3758L19.829 28.3758L19.7136 27.6347ZM25.672 23.0312L26.3662 23.315L26.3662 23.315L25.672 23.0312ZM26.1566 14.885L25.4328 15.0818L25.4328 15.0818L26.1566 14.885ZM5.84354 14.885L6.56726 15.0818L6.56726 15.0818L5.84354 14.885ZM19.5983 26.8936L18.6 27.049L18.8306 28.5311L19.829 28.3758L19.5983 26.8936ZM13.4001 27.049L12.4018 26.8936L12.1711 28.3758L13.1694 28.5311L13.4001 27.049ZM25.4328 15.0818L25.5349 15.4571L26.9823 15.0635L26.8803 14.6882L25.4328 15.0818ZM25.1017 22.4444L24.9778 22.7473L26.3662 23.315L26.4901 23.0121L25.1017 22.4444ZM7.02223 22.7473L6.89838 22.4444L5.50996 23.0121L5.63381 23.315L7.02223 22.7473ZM6.46522 15.4571L6.56726 15.0818L5.11982 14.6882L5.01777 15.0635L6.46522 15.4571ZM6.89838 22.4444C5.98717 20.2159 5.836 17.7712 6.46522 15.4571L5.01777 15.0635C4.30172 17.6969 4.47439 20.4794 5.50996 23.0121L6.89838 22.4444ZM25.5349 15.4571C26.1641 17.7712 26.0129 20.2159 25.1017 22.4444L26.4901 23.0121C27.5257 20.4794 27.6984 17.6969 26.9823 15.0635L25.5349 15.4571ZM18.6 27.049C16.8781 27.3169 15.122 27.3169 13.4001 27.049L13.1694 28.5311C15.0442 28.8229 16.9559 28.8229 18.8306 28.5311L18.6 27.049ZM10.9254 11.1156C14.2713 10.4385 17.7288 10.4385 21.0747 11.1156L21.3722 9.64539C17.8299 8.92859 14.1701 8.92859 10.6278 9.64539L10.9254 11.1156ZM12.4018 26.8936C9.95128 26.5123 7.9131 24.9261 7.02223 22.7473L5.63381 23.315C6.73288 26.003 9.22562 27.9174 12.1711 28.3758L12.4018 26.8936ZM19.829 28.3758C22.7744 27.9174 25.2672 26.003 26.3662 23.315L24.9778 22.7473C24.087 24.9261 22.0488 26.5123 19.5983 26.8936L19.829 28.3758ZM21.0747 11.1156C23.2159 11.5489 24.8928 13.0958 25.4328 15.0818L26.8803 14.6882C26.1838 12.1268 24.0405 10.1853 21.3722 9.64539L21.0747 11.1156ZM10.6278 9.64539C7.95963 10.1853 5.8163 12.1268 5.11982 14.6882L6.56726 15.0818C7.10728 13.0958 8.78422 11.5489 10.9254 11.1156L10.6278 9.64539Z" fill="#363853"/>
<path d="M20.2368 10.701L19.5501 10.3993L19.5501 10.3993L20.2368 10.701ZM19.2661 11.0456C19.0995 11.4249 19.2718 11.8674 19.651 12.034C20.0302 12.2006 20.4727 12.0283 20.6394 11.6491L19.2661 11.0456ZM11.7634 10.701L12.45 10.3993L12.45 10.3993L11.7634 10.701ZM11.3608 11.6491C11.5274 12.0283 11.9699 12.2006 12.3491 12.034C12.7283 11.8674 12.9007 11.4249 12.734 11.0456L11.3608 11.6491ZM14.9906 4.09893L15.1168 4.83824L15.1168 4.83824L14.9906 4.09893ZM15.1472 4.0722L15.0211 3.3329L15.0211 3.3329L15.1472 4.0722ZM16.8529 4.0722L16.7267 4.81151L16.7267 4.81151L16.8529 4.0722ZM17.0095 4.09893L17.1357 3.35962L17.1357 3.35962L17.0095 4.09893ZM20.5672 7.39781L21.2997 7.23686L20.5672 7.39781ZM11.4329 7.39781L12.1655 7.55877L12.1655 7.55877L11.4329 7.39781ZM19.5501 10.3993L19.2661 11.0456L20.6394 11.6491L20.9234 11.0028L19.5501 10.3993ZM11.0767 11.0028L11.3608 11.6491L12.734 11.0456L12.45 10.3993L11.0767 11.0028ZM15.1168 4.83824L15.2734 4.81151L15.0211 3.3329L14.8645 3.35962L15.1168 4.83824ZM16.7267 4.81151L16.8833 4.83824L17.1357 3.35962L16.9791 3.33289L16.7267 4.81151ZM19.8347 7.55876C20.0437 8.51032 19.9451 9.50052 19.5501 10.3993L20.9234 11.0028C21.4455 9.81463 21.5774 8.5005 21.2997 7.23686L19.8347 7.55876ZM10.7004 7.23686C10.4228 8.5005 10.5546 9.81463 11.0767 11.0028L12.45 10.3993C12.055 9.50052 11.9564 8.51032 12.1655 7.55877L10.7004 7.23686ZM15.2734 4.81151C15.754 4.7295 16.2461 4.7295 16.7267 4.81151L16.9791 3.3329C16.3315 3.22237 15.6687 3.22237 15.0211 3.3329L15.2734 4.81151ZM21.2997 7.23686C20.8592 5.23216 19.1984 3.71168 17.1357 3.35962L16.8833 4.83824C18.3779 5.09333 19.5325 6.18343 19.8347 7.55876L21.2997 7.23686ZM12.1655 7.55877C12.4677 6.18344 13.6222 5.09333 15.1168 4.83824L14.8645 3.35962C12.8017 3.71168 11.1409 5.23216 10.7004 7.23686L12.1655 7.55877Z" fill="#0095FF"/>
</svg>
