<svg width="32" height="32" viewBox="0 0 32 32" fill="none" xmlns="http://www.w3.org/2000/svg">
<rect x="17.3333" y="9.33337" width="5.33333" height="5.33333" rx="2.66667" stroke="#0095FF" stroke-width="1.5"/>
<path d="M6.29079 22.9352L8.60931 20.6166C10.776 18.4499 14.2889 18.45 16.4555 20.6166L18.7741 22.9352M18.7741 22.9352L19.7132 21.996C21.4434 20.2658 24.2857 20.3948 25.8522 22.2745L26.4027 22.9352M18.7741 22.9352L22.2416 26.4027M4.4705 20.0661C3.84317 17.3917 3.84317 14.6083 4.4705 11.9339C5.33916 8.23068 8.23068 5.33916 11.9339 4.4705C14.6083 3.84317 17.3917 3.84317 20.0661 4.4705C23.7693 5.33916 26.6608 8.23068 27.5295 11.9339C28.1568 14.6083 28.1568 17.3917 27.5295 20.0661C26.6608 23.7693 23.7693 26.6608 20.0661 27.5295C17.3917 28.1568 14.6083 28.1568 11.9339 27.5295C8.23068 26.6608 5.33917 23.7693 4.4705 20.0661Z" stroke="#363853" stroke-width="1.5" stroke-linecap="round" stroke-linejoin="round"/>
</svg>
