<svg width="32" height="32" viewBox="0 0 32 32" fill="none" xmlns="http://www.w3.org/2000/svg">
<path d="M12.9579 24.4271L12.2208 24.2887L12.2208 24.2887L12.9579 24.4271ZM12.9837 24.2897L13.7208 24.4281L13.7208 24.4281L12.9837 24.2897ZM19.0163 24.2897L18.2792 24.4281L18.2792 24.4281L19.0163 24.2897ZM19.0421 24.4271L19.7792 24.2887L19.7792 24.2887L19.0421 24.4271ZM18.6557 27.4025L19.3329 27.7248L19.3329 27.7248L18.6557 27.4025ZM17.8228 27.4074C17.6448 27.7814 17.8037 28.2289 18.1777 28.4069C18.5517 28.5849 18.9992 28.426 19.1772 28.052L17.8228 27.4074ZM13.3443 27.4025L12.6671 27.7248L12.6671 27.7248L13.3443 27.4025ZM12.8228 28.052C13.0008 28.426 13.4483 28.5849 13.8223 28.4069C14.1963 28.2289 14.3552 27.7814 14.1772 27.4074L12.8228 28.052ZM15.1481 21.9234L14.9476 21.2007L14.9476 21.2007L15.1481 21.9234ZM16.8519 21.9234L17.0525 21.2007L17.0525 21.2007L16.8519 21.9234ZM13.695 24.5654L13.7208 24.4281L12.2466 24.1513L12.2208 24.2887L13.695 24.5654ZM18.2792 24.4281L18.305 24.5654L19.7792 24.2887L19.7534 24.1513L18.2792 24.4281ZM17.9785 27.0802L17.8228 27.4074L19.1772 28.052L19.3329 27.7248L17.9785 27.0802ZM12.6671 27.7248L12.8228 28.052L14.1772 27.4074L14.0215 27.0802L12.6671 27.7248ZM18.305 24.5654C18.4649 25.4175 18.3504 26.2987 17.9785 27.0802L19.3329 27.7248C19.8414 26.6563 19.9977 25.4525 19.7792 24.2887L18.305 24.5654ZM12.2208 24.2887C12.0023 25.4525 12.1586 26.6563 12.6671 27.7248L14.0215 27.0802C13.6496 26.2987 13.5351 25.4175 13.695 24.5654L12.2208 24.2887ZM15.3486 22.6461C15.775 22.5278 16.225 22.5278 16.6514 22.6461L17.0525 21.2007C16.3637 21.0096 15.6363 21.0096 14.9476 21.2007L15.3486 22.6461ZM19.7534 24.1513C19.4871 22.7323 18.4411 21.586 17.0525 21.2007L16.6514 22.6461C17.4842 22.8772 18.1175 23.5668 18.2792 24.4281L19.7534 24.1513ZM13.7208 24.4281C13.8825 23.5668 14.5158 22.8772 15.3486 22.6461L14.9476 21.2007C13.5589 21.586 12.5129 22.7323 12.2466 24.1513L13.7208 24.4281Z" fill="#0095FF"/>
<path d="M26.47 12.9587C26.47 12.5445 26.1342 12.2087 25.72 12.2087C25.3058 12.2087 24.97 12.5445 24.97 12.9587H26.47ZM7.02999 12.9587C7.02999 12.5445 6.6942 12.2087 6.27999 12.2087C5.86578 12.2087 5.52999 12.5445 5.52999 12.9587H7.02999ZM19.351 27.6095L19.1786 26.8796L19.1786 26.8796L19.351 27.6095ZM12.649 27.6095L12.8214 26.8796L12.8214 26.8796L12.649 27.6095ZM19.7712 6.68564L19.239 7.21408L19.239 7.21408L19.7712 6.68564ZM27.4678 15.5014C27.7596 15.7953 28.2345 15.797 28.5284 15.5051C28.8224 15.2133 28.8241 14.7384 28.5322 14.4445L27.4678 15.5014ZM12.2288 6.68564L12.761 7.21408L12.761 7.21408L12.2288 6.68564ZM3.46779 14.4445C3.17594 14.7384 3.17762 15.2133 3.47155 15.5051C3.76548 15.797 4.24035 15.7953 4.53221 15.5014L3.46779 14.4445ZM24.97 12.9587V19.5165H26.47V12.9587H24.97ZM7.02999 19.5165V12.9587H5.52999V19.5165H7.02999ZM19.1786 26.8796C17.0879 27.3735 14.9121 27.3735 12.8214 26.8796L12.4765 28.3394C14.794 28.8869 17.2059 28.8869 19.5234 28.3394L19.1786 26.8796ZM12.8214 26.8796C9.43207 26.0789 7.02999 23.0317 7.02999 19.5165H5.52999C5.52999 23.7205 8.40368 27.3772 12.4765 28.3394L12.8214 26.8796ZM19.5234 28.3394C23.5963 27.3772 26.47 23.7205 26.47 19.5165H24.97C24.97 23.0317 22.5679 26.0789 19.1786 26.8796L19.5234 28.3394ZM19.239 7.21408L27.4678 15.5014L28.5322 14.4445L20.3034 6.15719L19.239 7.21408ZM11.6966 6.15719L3.46779 14.4445L4.53221 15.5014L12.761 7.21408L11.6966 6.15719ZM20.3034 6.15719C19.4295 5.27706 18.722 4.56221 18.0901 4.0767C17.4412 3.57807 16.7838 3.25 16 3.25V4.75C16.3207 4.75 16.6601 4.86954 17.1762 5.26612C17.7094 5.67582 18.3352 6.30379 19.239 7.21408L20.3034 6.15719ZM12.761 7.21408C13.6648 6.30379 14.2906 5.67582 14.8238 5.26612C15.3399 4.86954 15.6793 4.75 16 4.75V3.25C15.2162 3.25 14.5588 3.57806 13.9099 4.0767C13.278 4.56221 12.5705 5.27706 11.6966 6.15719L12.761 7.21408Z" fill="#363853"/>
</svg>
