<svg width="32" height="32" viewBox="0 0 32 32" fill="none" xmlns="http://www.w3.org/2000/svg">
<path d="M4.4705 11.9339C5.33916 8.23068 8.23068 5.33916 11.9339 4.4705C14.6083 3.84317 17.3917 3.84317 20.0661 4.4705C23.7693 5.33916 26.6608 8.23068 27.5295 11.9339C28.1568 14.6083 28.1568 17.3917 27.5295 20.0661C26.6608 23.7693 23.7693 26.6608 20.0661 27.5295C17.3917 28.1568 14.6083 28.1568 11.9339 27.5295C8.23068 26.6608 5.33917 23.7693 4.4705 20.0661C3.84317 17.3917 3.84317 14.6083 4.4705 11.9339Z" stroke="#363853" stroke-width="1.5"/>
<path d="M18.8824 14.4942C19.9281 15.1635 19.9281 16.8365 18.8824 17.5058L15.3529 19.7645C14.3072 20.4337 13 19.5972 13 18.2587L13 13.7413C13 12.4028 14.3072 11.5663 15.3529 12.2355L18.8824 14.4942Z" stroke="#0095FF" stroke-width="1.5"/>
</svg>
