<svg width="32" height="32" viewBox="0 0 32 32" fill="none" xmlns="http://www.w3.org/2000/svg">
<path d="M8 19.2831H21.5879C23.4755 19.2831 24.6293 17.0319 23.6348 15.2895L22.982 14.1457C22.3395 13.0201 22.3395 11.5964 22.982 10.4708L23.6348 9.32703C24.6293 7.5846 23.4755 5.33337 21.5879 5.33337L8 5.33337L8 19.2831ZM8 19.2831L8 26.6667" stroke="#363853" stroke-width="1.5" stroke-linecap="round" stroke-linejoin="round"/>
<path d="M21.5879 19.2831C23.4755 19.2831 24.6293 17.0319 23.6348 15.2895L22.982 14.1457C22.3395 13.0201 22.3395 11.5964 22.982 10.4708L23.6348 9.32703C24.6293 7.5846 23.4755 5.33337 21.5879 5.33337L8 5.33337L8 9.64159" stroke="#0095FF" stroke-width="1.5" stroke-linecap="round" stroke-linejoin="round"/>
</svg>
