<svg width="34" height="34" viewBox="0 0 34 34" fill="none" xmlns="http://www.w3.org/2000/svg">
<path d="M4.74991 20.9833L5.47932 20.8087L4.74991 20.9833ZM4.74991 12.5134L5.47932 12.6879L4.74991 12.5134ZM29.2501 12.5134L28.5207 12.6879L29.2501 12.5134ZM29.2501 20.9833L28.5207 20.8087L29.2501 20.9833ZM21.3202 28.7566L21.1522 28.0257L21.3202 28.7566ZM12.6798 28.7566L12.5117 29.4875L12.6798 28.7566ZM12.6798 4.74004L12.8478 5.47097L12.8478 5.47097L12.6798 4.74004ZM21.3202 4.74004L21.1522 5.47097L21.3202 4.74004ZM5.47932 20.8087C4.84023 18.138 4.84023 15.3587 5.47932 12.6879L4.0205 12.3388C3.3265 15.2391 3.3265 18.2576 4.0205 21.1578L5.47932 20.8087ZM28.5207 12.6879C29.1598 15.3587 29.1598 18.138 28.5207 20.8087L29.9795 21.1578C30.6735 18.2576 30.6735 15.2391 29.9795 12.3388L28.5207 12.6879ZM21.1522 28.0257C18.4212 28.6536 15.5788 28.6536 12.8479 28.0257L12.5117 29.4875C15.4639 30.1664 18.5361 30.1664 21.4883 29.4875L21.1522 28.0257ZM12.8478 5.47097C15.5788 4.84301 18.4212 4.84301 21.1522 5.47097L21.4883 4.00911C18.5361 3.33029 15.4639 3.3303 12.5117 4.00911L12.8478 5.47097ZM12.8479 28.0257C9.18437 27.1833 6.33448 24.3824 5.47932 20.8087L4.0205 21.1578C5.01125 25.2982 8.30583 28.5205 12.5117 29.4875L12.8479 28.0257ZM21.4883 29.4875C25.6942 28.5205 28.9888 25.2981 29.9795 21.1578L28.5207 20.8087C27.6655 24.3824 24.8156 27.1833 21.1522 28.0257L21.4883 29.4875ZM21.1522 5.47097C24.8156 6.31334 27.6655 9.11422 28.5207 12.6879L29.9795 12.3388C28.9888 8.19852 25.6942 4.97621 21.4883 4.00911L21.1522 5.47097ZM12.5117 4.00911C8.30582 4.97621 5.01125 8.19851 4.0205 12.3388L5.47932 12.6879C6.33448 9.11422 9.18437 6.31334 12.8478 5.47097L12.5117 4.00911ZM20.6974 29.75C20.6974 27.6854 20.6991 26.2138 20.8523 25.0965C21.0024 24.0022 21.2851 23.3599 21.7674 22.8872L20.7173 21.816C19.9047 22.6126 19.5399 23.6265 19.3663 24.8926C19.1958 26.1356 19.1974 27.7286 19.1974 29.75H20.6974ZM28.7898 20.3322C26.7264 20.3322 25.1049 20.3307 23.8405 20.4973C22.5561 20.6666 21.5279 21.0214 20.7173 21.816L21.7674 22.8872C22.2517 22.4124 22.9131 22.1325 24.0365 21.9845C25.1801 21.8338 26.6848 21.8322 28.7898 21.8322V20.3322Z" fill="#0095FF"/>
<path d="M4.74991 20.9833L5.47932 20.8087L4.74991 20.9833ZM4.74991 12.5134L5.47932 12.6879L4.74991 12.5134ZM29.2501 12.5134L28.5207 12.6879L29.2501 12.5134ZM29.2501 20.9833L28.5207 20.8087L29.2501 20.9833ZM21.3202 28.7566L21.1522 28.0257L21.3202 28.7566ZM12.6798 28.7566L12.5117 29.4875L12.6798 28.7566ZM12.6798 4.74004L12.8478 5.47097L12.6798 4.74004ZM21.3202 4.74004L21.1522 5.47097L21.3202 4.74004ZM5.47932 20.8087C4.84023 18.138 4.84023 15.3587 5.47932 12.6879L4.0205 12.3388C3.3265 15.2391 3.3265 18.2576 4.0205 21.1578L5.47932 20.8087ZM28.5207 12.6879C29.1598 15.3587 29.1598 18.138 28.5207 20.8087L29.9795 21.1578C30.6735 18.2576 30.6735 15.2391 29.9795 12.3388L28.5207 12.6879ZM21.1522 28.0257C18.4212 28.6537 15.5788 28.6536 12.8479 28.0257L12.5117 29.4875C15.4639 30.1664 18.5361 30.1664 21.4883 29.4875L21.1522 28.0257ZM12.8478 5.47097C15.5788 4.84301 18.4212 4.84301 21.1522 5.47097L21.4883 4.00911C18.5361 3.33029 15.4639 3.3303 12.5117 4.00911L12.8478 5.47097ZM12.8479 28.0257C9.18437 27.1833 6.33448 24.3824 5.47932 20.8087L4.0205 21.1578C5.01125 25.2982 8.30583 28.5205 12.5117 29.4875L12.8479 28.0257ZM21.4883 29.4875C25.6942 28.5205 28.9888 25.2981 29.9795 21.1578L28.5207 20.8087C27.6655 24.3824 24.8156 27.1833 21.1522 28.0257L21.4883 29.4875ZM21.1522 5.47097C24.8156 6.31334 27.6655 9.11422 28.5207 12.6879L29.9795 12.3388C28.9888 8.19852 25.6942 4.97621 21.4883 4.00911L21.1522 5.47097ZM12.5117 4.00911C8.30582 4.97621 5.01125 8.19851 4.0205 12.3388L5.47932 12.6879C6.33448 9.11422 9.18437 6.31334 12.8478 5.47097L12.5117 4.00911Z" fill="#363853"/>
<path d="M12.75 12.75H17M12.75 17H19.8333" stroke="#0095FF" stroke-width="1.5" stroke-linecap="round"/>
</svg>
